<svg xmlns="http://www.w3.org/2000/svg" xmlns:xlink="http://www.w3.org/1999/xlink" width="259pt" height="260pt" viewBox="0.00 0.00 259.00 260.00">
<g id="graph0" class="graph" transform="scale(1 1) rotate(0) translate(4 256)">
<title>G</title>
<polygon fill="white" stroke="none" points="-4,4 -4,-256 254.92,-256 254.92,4 -4,4"/>
<!-- service.proto -->
<g id="node1" class="node">
<title>service.proto</title>
<polygon fill="none" stroke="darkblue" points="149.42,-252 66.72,-252 66.72,-216 155.42,-216 155.42,-246 149.42,-252"/>
<polyline fill="none" stroke="darkblue" points="149.42,-252 149.42,-246"/>
<polyline fill="none" stroke="darkblue" points="155.42,-246 149.42,-246"/>
<text xml:space="preserve" text-anchor="middle" x="111.07" y="-229.8" font-family="Times,serif" font-size="14.00">service.proto</text>
</g>
<!-- service_pb.py -->
<g id="node4" class="node">
<title>service_pb.py</title>
<polygon fill="none" stroke="black" points="94.14,-180 0,-180 0,-144 94.14,-144 94.14,-180"/>
<text xml:space="preserve" text-anchor="middle" x="47.07" y="-157.8" font-family="Times,serif" font-size="14.00">service_pb.py</text>
</g>
<!-- service.proto&#45;&gt;service_pb.py -->
<g id="edge1" class="edge">
<title>service.proto-&gt;service_pb.py</title>
<path fill="none" stroke="black" d="M95.25,-215.7C87.73,-207.47 78.6,-197.48 70.31,-188.42"/>
<polygon fill="black" stroke="black" points="73.06,-186.24 63.73,-181.22 67.89,-190.96 73.06,-186.24"/>
</g>
<!-- service_pb_grpc.py -->
<g id="node5" class="node">
<title>service_pb_grpc.py</title>
<polygon fill="none" stroke="black" points="238.08,-180 112.06,-180 112.06,-144 238.08,-144 238.08,-180"/>
<text xml:space="preserve" text-anchor="middle" x="175.07" y="-157.8" font-family="Times,serif" font-size="14.00">service_pb_grpc.py</text>
</g>
<!-- service.proto&#45;&gt;service_pb_grpc.py -->
<g id="edge2" class="edge">
<title>service.proto-&gt;service_pb_grpc.py</title>
<path fill="none" stroke="black" d="M126.89,-215.7C134.41,-207.47 143.54,-197.48 151.83,-188.42"/>
<polygon fill="black" stroke="black" points="154.25,-190.96 158.41,-181.22 149.08,-186.24 154.25,-190.96"/>
</g>
<!-- client.py -->
<g id="node2" class="node">
<title>client.py</title>
<polygon fill="none" stroke="darkblue" points="159.37,-108 100.77,-108 100.77,-72 165.37,-72 165.37,-102 159.37,-108"/>
<polyline fill="none" stroke="darkblue" points="159.37,-108 159.37,-102"/>
<polyline fill="none" stroke="darkblue" points="165.37,-102 159.37,-102"/>
<text xml:space="preserve" text-anchor="middle" x="133.07" y="-85.8" font-family="Times,serif" font-size="14.00">client.py</text>
</g>
<!-- request.bin -->
<g id="node6" class="node">
<title>request.bin</title>
<polygon fill="none" stroke="black" points="121.98,-36 44.16,-36 44.16,0 121.98,0 121.98,-36"/>
<text xml:space="preserve" text-anchor="middle" x="83.07" y="-13.8" font-family="Times,serif" font-size="14.00">request.bin</text>
</g>
<!-- client.py&#45;&gt;request.bin -->
<g id="edge5" class="edge">
<title>client.py-&gt;request.bin</title>
<path fill="none" stroke="black" d="M120.71,-71.7C115.02,-63.73 108.14,-54.1 101.83,-45.26"/>
<polygon fill="black" stroke="black" points="104.83,-43.44 96.17,-37.34 99.13,-47.51 104.83,-43.44"/>
</g>
<!-- response.bin -->
<g id="node7" class="node">
<title>response.bin</title>
<polygon fill="none" stroke="black" points="226.26,-36 139.88,-36 139.88,0 226.26,0 226.26,-36"/>
<text xml:space="preserve" text-anchor="middle" x="183.07" y="-13.8" font-family="Times,serif" font-size="14.00">response.bin</text>
</g>
<!-- client.py&#45;&gt;response.bin -->
<g id="edge6" class="edge">
<title>client.py-&gt;response.bin</title>
<path fill="none" stroke="black" d="M145.43,-71.7C151.12,-63.73 158,-54.1 164.31,-45.26"/>
<polygon fill="black" stroke="black" points="167.01,-47.51 169.97,-37.34 161.31,-43.44 167.01,-47.51"/>
</g>
<!-- server.py -->
<g id="node3" class="node">
<title>server.py</title>
<polygon fill="none" stroke="darkblue" points="244.92,-108 183.22,-108 183.22,-72 250.92,-72 250.92,-102 244.92,-108"/>
<polyline fill="none" stroke="darkblue" points="244.92,-108 244.92,-102"/>
<polyline fill="none" stroke="darkblue" points="250.92,-102 244.92,-102"/>
<text xml:space="preserve" text-anchor="middle" x="217.07" y="-85.8" font-family="Times,serif" font-size="14.00">server.py</text>
</g>
<!-- service_pb_grpc.py&#45;&gt;client.py -->
<g id="edge3" class="edge">
<title>service_pb_grpc.py-&gt;client.py</title>
<path fill="none" stroke="black" d="M164.69,-143.7C160.01,-135.9 154.38,-126.51 149.17,-117.83"/>
<polygon fill="black" stroke="black" points="152.26,-116.18 144.11,-109.4 146.26,-119.78 152.26,-116.18"/>
</g>
<!-- service_pb_grpc.py&#45;&gt;server.py -->
<g id="edge4" class="edge">
<title>service_pb_grpc.py-&gt;server.py</title>
<path fill="none" stroke="black" d="M185.45,-143.7C190.13,-135.9 195.77,-126.51 200.97,-117.83"/>
<polygon fill="black" stroke="black" points="203.89,-119.78 206.03,-109.4 197.88,-116.18 203.89,-119.78"/>
</g>
</g>
</svg>
